<svg width="17" height="18" viewBox="0 0 17 18" fill="none" xmlns="http://www.w3.org/2000/svg">
<path d="M8.54972 12.3605L3.44504 7.46745C3.39761 7.42199 3.3596 7.36763 3.33318 7.30748C3.30676 7.24733 3.29245 7.18256 3.29106 7.11688C3.28967 7.0512 3.30123 6.98588 3.32508 6.92467C3.34893 6.86345 3.38461 6.80754 3.43007 6.76011C3.47553 6.71268 3.52989 6.67467 3.59004 6.64825C3.65019 6.62183 3.71495 6.60752 3.78064 6.60613C3.84632 6.60474 3.91163 6.6163 3.97285 6.64015C4.03406 6.664 4.08998 6.69968 4.13741 6.74514L8.88095 11.2927L13.4278 6.54851C13.5196 6.45272 13.6457 6.39734 13.7784 6.39453C13.9111 6.39172 14.0394 6.44172 14.1352 6.53354C14.231 6.62535 14.2863 6.75146 14.2892 6.88411C14.292 7.01676 14.242 7.14509 14.1501 7.24088L9.25706 12.3456C9.21162 12.393 9.15727 12.4311 9.09711 12.4575C9.03696 12.4839 8.97219 12.4983 8.90649 12.4997C8.8408 12.501 8.77548 12.4895 8.71426 12.4656C8.65304 12.4417 8.59713 12.406 8.54972 12.3605Z" fill="#797085"/>
</svg>
